<mxfile host="app.diagrams.net" modified="2021-11-16T17:25:05.349Z" agent="5.0 (Windows)" etag="xJ3vvZm2cUIBn7YbmiC1" version="15.7.4" type="github">
  <diagram id="J3_mylExHDtyLZkMq2NH" name="Page-1">
    <mxGraphModel dx="526" dy="251" grid="1" gridSize="10" guides="1" tooltips="1" connect="1" arrows="1" fold="1" page="1" pageScale="1" pageWidth="827" pageHeight="1169" math="0" shadow="0">
      <root>
        <mxCell id="0" />
        <mxCell id="1" parent="0" />
        <mxCell id="XNUiwVSTMrSEUoQE4CAb-1" value="Source Layer" style="text;whiteSpace=wrap;html=1;" vertex="1" parent="1">
          <mxGeometry x="20" y="40" width="100" height="30" as="geometry" />
        </mxCell>
        <mxCell id="XNUiwVSTMrSEUoQE4CAb-2" value="Storage Layer" style="text;whiteSpace=wrap;html=1;" vertex="1" parent="1">
          <mxGeometry x="190" y="40" width="100" height="30" as="geometry" />
        </mxCell>
        <mxCell id="XNUiwVSTMrSEUoQE4CAb-3" value="Business Layer" style="text;whiteSpace=wrap;html=1;" vertex="1" parent="1">
          <mxGeometry x="400" y="40" width="110" height="30" as="geometry" />
        </mxCell>
        <mxCell id="XNUiwVSTMrSEUoQE4CAb-4" value="" style="endArrow=none;dashed=1;html=1;rounded=0;" edge="1" parent="1">
          <mxGeometry width="50" height="50" relative="1" as="geometry">
            <mxPoint x="180" y="200" as="sourcePoint" />
            <mxPoint x="180" y="40" as="targetPoint" />
          </mxGeometry>
        </mxCell>
        <mxCell id="XNUiwVSTMrSEUoQE4CAb-5" value="" style="endArrow=none;dashed=1;html=1;rounded=0;" edge="1" parent="1" target="XNUiwVSTMrSEUoQE4CAb-6">
          <mxGeometry width="50" height="50" relative="1" as="geometry">
            <mxPoint x="60" y="90" as="sourcePoint" />
            <mxPoint x="360" y="40" as="targetPoint" />
            <Array as="points">
              <mxPoint x="60" y="110" />
              <mxPoint x="60" y="90" />
            </Array>
          </mxGeometry>
        </mxCell>
        <mxCell id="XNUiwVSTMrSEUoQE4CAb-6" value="Actor" style="shape=umlActor;verticalLabelPosition=bottom;verticalAlign=top;html=1;outlineConnect=0;" vertex="1" parent="1">
          <mxGeometry x="10" y="80" width="10" height="30" as="geometry" />
        </mxCell>
        <mxCell id="XNUiwVSTMrSEUoQE4CAb-12" value="www" style="whiteSpace=wrap;html=1;aspect=fixed;" vertex="1" parent="1">
          <mxGeometry x="40" y="120" width="40" height="40" as="geometry" />
        </mxCell>
        <mxCell id="XNUiwVSTMrSEUoQE4CAb-13" value="" style="endArrow=classic;html=1;rounded=0;" edge="1" parent="1" target="XNUiwVSTMrSEUoQE4CAb-14">
          <mxGeometry width="50" height="50" relative="1" as="geometry">
            <mxPoint x="80" y="140" as="sourcePoint" />
            <mxPoint x="110" y="110" as="targetPoint" />
            <Array as="points" />
          </mxGeometry>
        </mxCell>
        <mxCell id="XNUiwVSTMrSEUoQE4CAb-24" value="" style="edgeStyle=orthogonalEdgeStyle;rounded=0;orthogonalLoop=1;jettySize=auto;html=1;" edge="1" parent="1" source="XNUiwVSTMrSEUoQE4CAb-14" target="XNUiwVSTMrSEUoQE4CAb-21">
          <mxGeometry relative="1" as="geometry" />
        </mxCell>
        <mxCell id="XNUiwVSTMrSEUoQE4CAb-14" value="" style="shape=cylinder3;whiteSpace=wrap;html=1;boundedLbl=1;backgroundOutline=1;size=15;" vertex="1" parent="1">
          <mxGeometry x="120" y="60" width="30" height="60" as="geometry" />
        </mxCell>
        <mxCell id="XNUiwVSTMrSEUoQE4CAb-22" value="" style="edgeStyle=orthogonalEdgeStyle;rounded=0;orthogonalLoop=1;jettySize=auto;html=1;" edge="1" parent="1" source="XNUiwVSTMrSEUoQE4CAb-15" target="XNUiwVSTMrSEUoQE4CAb-21">
          <mxGeometry relative="1" as="geometry" />
        </mxCell>
        <mxCell id="XNUiwVSTMrSEUoQE4CAb-15" value="" style="shape=cylinder3;whiteSpace=wrap;html=1;boundedLbl=1;backgroundOutline=1;size=15;" vertex="1" parent="1">
          <mxGeometry x="120" y="130" width="30" height="50" as="geometry" />
        </mxCell>
        <mxCell id="XNUiwVSTMrSEUoQE4CAb-25" value="" style="edgeStyle=orthogonalEdgeStyle;rounded=0;orthogonalLoop=1;jettySize=auto;html=1;" edge="1" parent="1" source="XNUiwVSTMrSEUoQE4CAb-16" target="XNUiwVSTMrSEUoQE4CAb-23">
          <mxGeometry relative="1" as="geometry" />
        </mxCell>
        <mxCell id="XNUiwVSTMrSEUoQE4CAb-16" value="" style="shape=cylinder3;whiteSpace=wrap;html=1;boundedLbl=1;backgroundOutline=1;size=15;" vertex="1" parent="1">
          <mxGeometry x="120" y="200" width="35" height="60" as="geometry" />
        </mxCell>
        <mxCell id="XNUiwVSTMrSEUoQE4CAb-17" value="" style="endArrow=classic;html=1;rounded=0;" edge="1" parent="1">
          <mxGeometry width="50" height="50" relative="1" as="geometry">
            <mxPoint x="80" y="150" as="sourcePoint" />
            <mxPoint x="110" y="160" as="targetPoint" />
          </mxGeometry>
        </mxCell>
        <mxCell id="XNUiwVSTMrSEUoQE4CAb-18" value="" style="endArrow=classic;html=1;rounded=0;" edge="1" parent="1">
          <mxGeometry width="50" height="50" relative="1" as="geometry">
            <mxPoint x="80" y="160" as="sourcePoint" />
            <mxPoint x="110" y="210" as="targetPoint" />
          </mxGeometry>
        </mxCell>
        <mxCell id="XNUiwVSTMrSEUoQE4CAb-21" value="DW" style="shape=cylinder3;whiteSpace=wrap;html=1;boundedLbl=1;backgroundOutline=1;size=15;" vertex="1" parent="1">
          <mxGeometry x="225" y="80" width="55" height="60" as="geometry" />
        </mxCell>
        <mxCell id="XNUiwVSTMrSEUoQE4CAb-23" value="DL" style="ellipse;shape=cloud;whiteSpace=wrap;html=1;" vertex="1" parent="1">
          <mxGeometry x="210" y="150" width="90" height="50" as="geometry" />
        </mxCell>
        <mxCell id="XNUiwVSTMrSEUoQE4CAb-26" value="" style="endArrow=none;dashed=1;html=1;rounded=0;" edge="1" parent="1">
          <mxGeometry width="50" height="50" relative="1" as="geometry">
            <mxPoint x="360" y="200" as="sourcePoint" />
            <mxPoint x="360" y="40" as="targetPoint" />
          </mxGeometry>
        </mxCell>
        <mxCell id="XNUiwVSTMrSEUoQE4CAb-41" value="" style="edgeStyle=orthogonalEdgeStyle;rounded=0;orthogonalLoop=1;jettySize=auto;html=1;" edge="1" parent="1" source="XNUiwVSTMrSEUoQE4CAb-27" target="XNUiwVSTMrSEUoQE4CAb-40">
          <mxGeometry relative="1" as="geometry" />
        </mxCell>
        <mxCell id="XNUiwVSTMrSEUoQE4CAb-27" value="Actor" style="shape=umlActor;verticalLabelPosition=bottom;verticalAlign=top;html=1;outlineConnect=0;" vertex="1" parent="1">
          <mxGeometry x="490" y="80" width="20" height="40" as="geometry" />
        </mxCell>
        <mxCell id="XNUiwVSTMrSEUoQE4CAb-42" value="" style="edgeStyle=orthogonalEdgeStyle;rounded=0;orthogonalLoop=1;jettySize=auto;html=1;" edge="1" parent="1" source="XNUiwVSTMrSEUoQE4CAb-28" target="XNUiwVSTMrSEUoQE4CAb-40">
          <mxGeometry relative="1" as="geometry">
            <Array as="points">
              <mxPoint x="450" y="150" />
              <mxPoint x="450" y="80" />
            </Array>
          </mxGeometry>
        </mxCell>
        <mxCell id="XNUiwVSTMrSEUoQE4CAb-28" value="Actor" style="shape=umlActor;verticalLabelPosition=bottom;verticalAlign=top;html=1;outlineConnect=0;" vertex="1" parent="1">
          <mxGeometry x="530" y="100" width="20" height="50" as="geometry" />
        </mxCell>
        <mxCell id="XNUiwVSTMrSEUoQE4CAb-44" value="" style="edgeStyle=orthogonalEdgeStyle;rounded=0;orthogonalLoop=1;jettySize=auto;html=1;entryX=0.5;entryY=0.5;entryDx=0;entryDy=0;entryPerimeter=0;" edge="1" parent="1" source="XNUiwVSTMrSEUoQE4CAb-29" target="XNUiwVSTMrSEUoQE4CAb-40">
          <mxGeometry relative="1" as="geometry">
            <mxPoint x="450" y="80" as="targetPoint" />
            <Array as="points">
              <mxPoint x="450" y="180" />
              <mxPoint x="450" y="80" />
            </Array>
          </mxGeometry>
        </mxCell>
        <mxCell id="XNUiwVSTMrSEUoQE4CAb-29" value="Actor" style="shape=umlActor;verticalLabelPosition=bottom;verticalAlign=top;html=1;outlineConnect=0;" vertex="1" parent="1">
          <mxGeometry x="485" y="160" width="25" height="40" as="geometry" />
        </mxCell>
        <mxCell id="XNUiwVSTMrSEUoQE4CAb-32" value="" style="edgeStyle=orthogonalEdgeStyle;rounded=0;orthogonalLoop=1;jettySize=auto;html=1;entryX=1;entryY=0;entryDx=0;entryDy=15;entryPerimeter=0;" edge="1" parent="1" source="XNUiwVSTMrSEUoQE4CAb-30" target="XNUiwVSTMrSEUoQE4CAb-21">
          <mxGeometry relative="1" as="geometry">
            <mxPoint x="290" y="110" as="targetPoint" />
          </mxGeometry>
        </mxCell>
        <mxCell id="XNUiwVSTMrSEUoQE4CAb-37" value="" style="edgeStyle=orthogonalEdgeStyle;rounded=0;orthogonalLoop=1;jettySize=auto;html=1;entryX=0.88;entryY=0.25;entryDx=0;entryDy=0;entryPerimeter=0;" edge="1" parent="1" source="XNUiwVSTMrSEUoQE4CAb-30" target="XNUiwVSTMrSEUoQE4CAb-23">
          <mxGeometry relative="1" as="geometry">
            <Array as="points">
              <mxPoint x="414" y="160" />
              <mxPoint x="415" y="160" />
              <mxPoint x="415" y="163" />
            </Array>
          </mxGeometry>
        </mxCell>
        <mxCell id="XNUiwVSTMrSEUoQE4CAb-30" value="BI" style="ellipse;whiteSpace=wrap;html=1;" vertex="1" parent="1">
          <mxGeometry x="389" y="140" width="50" height="30" as="geometry" />
        </mxCell>
        <mxCell id="XNUiwVSTMrSEUoQE4CAb-33" value="" style="edgeStyle=orthogonalEdgeStyle;rounded=0;orthogonalLoop=1;jettySize=auto;html=1;entryX=1;entryY=0.5;entryDx=0;entryDy=0;entryPerimeter=0;" edge="1" parent="1" source="XNUiwVSTMrSEUoQE4CAb-31" target="XNUiwVSTMrSEUoQE4CAb-21">
          <mxGeometry relative="1" as="geometry" />
        </mxCell>
        <mxCell id="XNUiwVSTMrSEUoQE4CAb-35" value="" style="edgeStyle=orthogonalEdgeStyle;rounded=0;orthogonalLoop=1;jettySize=auto;html=1;" edge="1" parent="1" source="XNUiwVSTMrSEUoQE4CAb-31" target="XNUiwVSTMrSEUoQE4CAb-23">
          <mxGeometry relative="1" as="geometry">
            <Array as="points">
              <mxPoint x="340" y="185" />
              <mxPoint x="340" y="175" />
            </Array>
          </mxGeometry>
        </mxCell>
        <mxCell id="XNUiwVSTMrSEUoQE4CAb-31" value="SQL" style="ellipse;whiteSpace=wrap;html=1;" vertex="1" parent="1">
          <mxGeometry x="389" y="190" width="50" height="30" as="geometry" />
        </mxCell>
        <mxCell id="XNUiwVSTMrSEUoQE4CAb-40" value="&lt;div&gt;DI&lt;/div&gt;&lt;div&gt;&lt;br&gt;&lt;/div&gt;" style="shape=umlActor;verticalLabelPosition=bottom;verticalAlign=top;html=1;outlineConnect=0;" vertex="1" parent="1">
          <mxGeometry x="409" y="70" width="10" height="20" as="geometry" />
        </mxCell>
        <mxCell id="XNUiwVSTMrSEUoQE4CAb-45" value="" style="shape=flexArrow;endArrow=classic;html=1;rounded=0;" edge="1" parent="1">
          <mxGeometry width="50" height="50" relative="1" as="geometry">
            <mxPoint x="400" y="90" as="sourcePoint" />
            <mxPoint x="400" y="130" as="targetPoint" />
            <Array as="points">
              <mxPoint x="380" y="110" />
            </Array>
          </mxGeometry>
        </mxCell>
        <mxCell id="XNUiwVSTMrSEUoQE4CAb-48" value="" style="endArrow=none;dashed=1;html=1;dashPattern=1 3;strokeWidth=2;rounded=0;exitX=0.5;exitY=1;exitDx=0;exitDy=0;entryX=0.5;entryY=0;entryDx=0;entryDy=0;" edge="1" parent="1" source="XNUiwVSTMrSEUoQE4CAb-30" target="XNUiwVSTMrSEUoQE4CAb-31">
          <mxGeometry width="50" height="50" relative="1" as="geometry">
            <mxPoint x="450" y="160" as="sourcePoint" />
            <mxPoint x="500" y="110" as="targetPoint" />
          </mxGeometry>
        </mxCell>
      </root>
    </mxGraphModel>
  </diagram>
</mxfile>
